solid main_support
facet normal 0.0 1.0 0.0
outer loop
vertex 0.0 39.0 5.0
vertex 96.0 39.0 -1.76247905159244e-16
vertex 0.0 39.0 -1.76247905159244e-16
endloop
endfacet
facet normal 0.0 1.0 0.0
outer loop
vertex 96.0 39.0 -1.76247905159244e-16
vertex 0.0 39.0 5.0
vertex 96.0 39.0 5.0
endloop
endfacet
facet normal 1.0 0.0 0.0
outer loop
vertex 96.0 39.0 -1.76247905159244e-16
vertex 96.0 0.0 5.0
vertex 96.0 0.0 -1.76247905159244e-16
endloop
endfacet
facet normal 1.0 0.0 0.0
outer loop
vertex 96.0 0.0 5.0
vertex 96.0 39.0 -1.76247905159244e-16
vertex 96.0 39.0 5.0
endloop
endfacet
facet normal -0.0 -1.0 -0.0
outer loop
vertex 96.0 0.0 5.0
vertex 0.0 0.0 -1.76247905159244e-16
vertex 96.0 0.0 -1.76247905159244e-16
endloop
endfacet
facet normal -0.0 -1.0 -0.0
outer loop
vertex 0.0 0.0 -1.76247905159244e-16
vertex 96.0 0.0 5.0
vertex 0.0 0.0 5.0
endloop
endfacet
facet normal -1.0 0.0 0.0
outer loop
vertex 0.0 39.0 5.0
vertex 0.0 0.0 -1.76247905159244e-16
vertex 0.0 0.0 5.0
endloop
endfacet
facet normal -1.0 0.0 0.0
outer loop
vertex 0.0 0.0 -1.76247905159244e-16
vertex 0.0 39.0 5.0
vertex 0.0 39.0 -1.76247905159244e-16
endloop
endfacet
facet normal 0.0 0.0 1.0
outer loop
vertex 91.0 2.0 3.0
vertex 45.0 37.0 3.0
vertex 45.0 2.0 3.0
endloop
endfacet
facet normal 0.0 0.0 1.0
outer loop
vertex 45.0 37.0 3.0
vertex 91.0 2.0 3.0
vertex 91.0 37.0 3.0
endloop
endfacet
facet normal 0.0 0.0 1.0
outer loop
vertex 32.0 13.0 3.00000000000001
vertex 8.00000000000001 26.0 3.00000000000001
vertex 8.00000000000001 13.0 3.00000000000001
endloop
endfacet
facet normal 0.0 0.0 1.0
outer loop
vertex 8.00000000000001 26.0 3.00000000000001
vertex 32.0 13.0 3.00000000000001
vertex 32.0 26.0 3.00000000000001
endloop
endfacet
facet normal -0.0 -1.0 -0.0
outer loop
vertex 32.0 26.0 5.0
vertex 8.00000000000001 26.0 3.00000000000001
vertex 32.0 26.0 3.00000000000001
endloop
endfacet
facet normal -0.0 -1.0 -0.0
outer loop
vertex 8.00000000000001 26.0 3.00000000000001
vertex 32.0 26.0 5.0
vertex 20.0 26.0 5.0
endloop
endfacet
facet normal -0.0 -1.0 -0.0
outer loop
vertex 8.00000000000001 26.0 3.00000000000001
vertex 20.0 26.0 5.0
vertex 8.00000000000001 26.0 19.0
endloop
endfacet
facet normal -0.0 -1.0 -0.0
outer loop
vertex 8.00000000000001 26.0 19.0
vertex 20.0 26.0 5.0
vertex 20.0 26.0 19.0
endloop
endfacet
facet normal 0.0 1.0 0.0
outer loop
vertex 8.00000000000001 13.0 3.00000000000001
vertex 20.0 13.0 5.0
vertex 32.0 13.0 3.00000000000001
endloop
endfacet
facet normal 0.0 1.0 0.0
outer loop
vertex 20.0 13.0 5.0
vertex 8.00000000000001 13.0 3.00000000000001
vertex 8.00000000000001 13.0 19.0
endloop
endfacet
facet normal 0.0 1.0 0.0
outer loop
vertex 20.0 13.0 5.0
vertex 8.00000000000001 13.0 19.0
vertex 20.0 13.0 19.0
endloop
endfacet
facet normal 0.0 1.0 0.0
outer loop
vertex 32.0 13.0 5.0
vertex 32.0 13.0 3.00000000000001
vertex 20.0 13.0 5.0
endloop
endfacet
facet normal 1.0 0.0 0.0
outer loop
vertex 8.00000000000001 26.0 3.00000000000001
vertex 8.00000000000001 13.0 19.0
vertex 8.00000000000001 13.0 3.00000000000001
endloop
endfacet
facet normal 1.0 0.0 0.0
outer loop
vertex 8.00000000000001 13.0 19.0
vertex 8.00000000000001 26.0 3.00000000000001
vertex 8.00000000000001 26.0 19.0
endloop
endfacet
facet normal 0.0 1.0 0.0
outer loop
vertex 3.00000000000001 30.0 19.0
vertex 20.0 30.0 5.0
vertex 3.00000000000001 30.0 5.0
endloop
endfacet
facet normal 0.0 1.0 0.0
outer loop
vertex 20.0 30.0 5.0
vertex 3.00000000000001 30.0 19.0
vertex 20.0 30.0 19.0
endloop
endfacet
facet normal 1.0 0.0 0.0
outer loop
vertex 20.0 30.0 5.0
vertex 20.0 26.0 19.0
vertex 20.0 26.0 5.0
endloop
endfacet
facet normal 1.0 0.0 0.0
outer loop
vertex 20.0 26.0 19.0
vertex 20.0 30.0 5.0
vertex 20.0 30.0 19.0
endloop
endfacet
facet normal 1.0 0.0 0.0
outer loop
vertex 20.0 13.0 5.0
vertex 20.0 9.00000000000001 19.0
vertex 20.0 9.00000000000001 5.0
endloop
endfacet
facet normal 1.0 0.0 0.0
outer loop
vertex 20.0 9.00000000000001 19.0
vertex 20.0 13.0 5.0
vertex 20.0 13.0 19.0
endloop
endfacet
facet normal -0.0 -1.0 -0.0
outer loop
vertex 20.0 9.00000000000001 19.0
vertex 3.00000000000001 9.00000000000001 5.0
vertex 20.0 9.00000000000001 5.0
endloop
endfacet
facet normal -0.0 -1.0 -0.0
outer loop
vertex 3.00000000000001 9.00000000000001 5.0
vertex 20.0 9.00000000000001 19.0
vertex 3.00000000000001 9.00000000000001 19.0
endloop
endfacet
facet normal -1.0 0.0 0.0
outer loop
vertex 3.00000000000001 30.0 19.0
vertex 3.00000000000001 9.00000000000001 5.0
vertex 3.00000000000001 9.00000000000001 19.0
endloop
endfacet
facet normal -1.0 0.0 0.0
outer loop
vertex 3.00000000000001 9.00000000000001 5.0
vertex 3.00000000000001 30.0 19.0
vertex 3.00000000000001 30.0 5.0
endloop
endfacet
facet normal 0.0 1.0 0.0
outer loop
vertex 1.0 2.0 5.0
vertex 4.0 2.0 1.93872695675168e-15
vertex 1.0 2.0 1.93872695675168e-15
endloop
endfacet
facet normal 0.0 1.0 0.0
outer loop
vertex 4.0 2.0 1.93872695675168e-15
vertex 1.0 2.0 5.0
vertex 4.0 2.0 5.0
endloop
endfacet
facet normal -1.0 0.0 0.0
outer loop
vertex 4.0 7.0 5.0
vertex 4.0 2.0 1.93872695675168e-15
vertex 4.0 2.0 5.0
endloop
endfacet
facet normal -1.0 0.0 0.0
outer loop
vertex 4.0 2.0 1.93872695675168e-15
vertex 4.0 7.0 5.0
vertex 4.0 7.0 1.93872695675168e-15
endloop
endfacet
facet normal -0.0 -1.0 -0.0
outer loop
vertex 4.0 7.0 5.0
vertex 1.0 7.0 1.93872695675168e-15
vertex 4.0 7.0 1.93872695675168e-15
endloop
endfacet
facet normal -0.0 -1.0 -0.0
outer loop
vertex 1.0 7.0 1.93872695675168e-15
vertex 4.0 7.0 5.0
vertex 1.0 7.0 5.0
endloop
endfacet
facet normal 1.0 1.05748743095546e-16 0.0
outer loop
vertex 1.0 7.0 1.93872695675168e-15
vertex 1.0 2.0 5.0
vertex 1.0 2.0 1.93872695675168e-15
endloop
endfacet
facet normal 1.0 1.05748743095546e-16 0.0
outer loop
vertex 1.0 2.0 5.0
vertex 1.0 7.0 1.93872695675168e-15
vertex 1.0 7.0 5.0
endloop
endfacet
facet normal 0.0 1.0 0.0
outer loop
vertex 0.999999999999999 32.0 5.0
vertex 4.0 32.0 1.23373533611471e-15
vertex 0.999999999999999 32.0 1.23373533611471e-15
endloop
endfacet
facet normal 0.0 1.0 0.0
outer loop
vertex 4.0 32.0 1.23373533611471e-15
vertex 0.999999999999999 32.0 5.0
vertex 4.0 32.0 5.0
endloop
endfacet
facet normal -1.0 0.0 0.0
outer loop
vertex 4.0 37.0 5.0
vertex 4.0 32.0 1.23373533611471e-15
vertex 4.0 32.0 5.0
endloop
endfacet
facet normal -1.0 0.0 0.0
outer loop
vertex 4.0 32.0 1.23373533611471e-15
vertex 4.0 37.0 5.0
vertex 4.0 37.0 1.23373533611471e-15
endloop
endfacet
facet normal -0.0 -1.0 -0.0
outer loop
vertex 4.0 37.0 5.0
vertex 0.999999999999997 37.0 1.23373533611471e-15
vertex 4.0 37.0 1.23373533611471e-15
endloop
endfacet
facet normal -0.0 -1.0 -0.0
outer loop
vertex 0.999999999999997 37.0 1.23373533611471e-15
vertex 4.0 37.0 5.0
vertex 0.999999999999997 37.0 5.0
endloop
endfacet
facet normal 1.0 2.8199664825479e-16 0.0
outer loop
vertex 0.999999999999997 37.0 1.23373533611471e-15
vertex 0.999999999999999 32.0 5.0
vertex 0.999999999999999 32.0 1.23373533611471e-15
endloop
endfacet
facet normal 1.0 2.8199664825479e-16 0.0
outer loop
vertex 0.999999999999999 32.0 5.0
vertex 0.999999999999997 37.0 1.23373533611471e-15
vertex 0.999999999999997 37.0 5.0
endloop
endfacet
facet normal 0.0 1.0 0.0
outer loop
vertex 92.0 2.0 5.0
vertex 95.0 2.0 1.93872695675168e-15
vertex 92.0 2.0 1.93872695675168e-15
endloop
endfacet
facet normal 0.0 1.0 0.0
outer loop
vertex 95.0 2.0 1.93872695675168e-15
vertex 92.0 2.0 5.0
vertex 95.0 2.0 5.0
endloop
endfacet
facet normal -1.0 0.0 0.0
outer loop
vertex 95.0 7.0 5.0
vertex 95.0 2.0 1.93872695675168e-15
vertex 95.0 2.0 5.0
endloop
endfacet
facet normal -1.0 0.0 0.0
outer loop
vertex 95.0 2.0 1.93872695675168e-15
vertex 95.0 7.0 5.0
vertex 95.0 7.0 1.93872695675168e-15
endloop
endfacet
facet normal -0.0 -1.0 -0.0
outer loop
vertex 95.0 7.0 5.0
vertex 92.0 7.0 1.93872695675168e-15
vertex 95.0 7.0 1.93872695675168e-15
endloop
endfacet
facet normal -0.0 -1.0 -0.0
outer loop
vertex 92.0 7.0 1.93872695675168e-15
vertex 95.0 7.0 5.0
vertex 92.0 7.0 5.0
endloop
endfacet
facet normal -1.0 0.0 0.0
outer loop
vertex 32.0 26.0 5.0
vertex 32.0 13.0 3.00000000000001
vertex 32.0 13.0 5.0
endloop
endfacet
facet normal -1.0 0.0 0.0
outer loop
vertex 32.0 13.0 3.00000000000001
vertex 32.0 26.0 5.0
vertex 32.0 26.0 3.00000000000001
endloop
endfacet
facet normal -0.0 -1.0 -0.0
outer loop
vertex 91.0 37.0 3.0
vertex 86.0 37.0 5.0
vertex 45.0 37.0 3.0
endloop
endfacet
facet normal -0.0 -1.0 -0.0
outer loop
vertex 86.0 37.0 5.0
vertex 91.0 37.0 3.0
vertex 91.0 37.0 6.0
endloop
endfacet
facet normal -0.0 -1.0 -0.0
outer loop
vertex 86.0 37.0 5.0
vertex 91.0 37.0 6.0
vertex 86.0 37.0 6.0
endloop
endfacet
facet normal -0.0 -1.0 -0.0
outer loop
vertex 45.0 37.0 3.0
vertex 50.0 37.0 5.0
vertex 45.0 37.0 6.0
endloop
endfacet
facet normal -0.0 -1.0 -0.0
outer loop
vertex 50.0 37.0 5.0
vertex 45.0 37.0 3.0
vertex 86.0 37.0 5.0
endloop
endfacet
facet normal -0.0 -1.0 -0.0
outer loop
vertex 45.0 37.0 6.0
vertex 50.0 37.0 5.0
vertex 50.0 37.0 6.0
endloop
endfacet
facet normal 1.0 -1.6114094185988e-16 0.0
outer loop
vertex 45.0 2.0 3.0
vertex 45.0 7.0 5.0
vertex 45.0 2.0 6.0
endloop
endfacet
facet normal 1.0 -1.6114094185988e-16 0.0
outer loop
vertex 45.0 7.0 5.0
vertex 45.0 2.0 3.0
vertex 45.0 37.0 3.0
endloop
endfacet
facet normal 1.0 -1.6114094185988e-16 0.0
outer loop
vertex 45.0 7.0 5.0
vertex 45.0 37.0 3.0
vertex 45.0 32.0 5.0
endloop
endfacet
facet normal 1.0 -1.6114094185988e-16 0.0
outer loop
vertex 45.0 32.0 5.0
vertex 45.0 37.0 3.0
vertex 45.0 32.0 6.0
endloop
endfacet
facet normal 1.0 -1.6114094185988e-16 0.0
outer loop
vertex 45.0 32.0 6.0
vertex 45.0 37.0 3.0
vertex 45.0 37.0 6.0
endloop
endfacet
facet normal 1.0 -1.6114094185988e-16 0.0
outer loop
vertex 45.0 7.0 6.0
vertex 45.0 2.0 6.0
vertex 45.0 7.0 5.0
endloop
endfacet
facet normal -1.0 0.0 0.0
outer loop
vertex 91.0 37.0 6.0
vertex 91.0 32.0 5.0
vertex 91.0 32.0 6.0
endloop
endfacet
facet normal -1.0 0.0 0.0
outer loop
vertex 91.0 7.0 6.0
vertex 91.0 2.0 3.0
vertex 91.0 2.0 6.0
endloop
endfacet
facet normal -1.0 0.0 0.0
outer loop
vertex 91.0 2.0 3.0
vertex 91.0 7.0 6.0
vertex 91.0 7.0 5.0
endloop
endfacet
facet normal -1.0 0.0 0.0
outer loop
vertex 91.0 2.0 3.0
vertex 91.0 7.0 5.0
vertex 91.0 37.0 3.0
endloop
endfacet
facet normal -1.0 0.0 0.0
outer loop
vertex 91.0 37.0 3.0
vertex 91.0 7.0 5.0
vertex 91.0 32.0 5.0
endloop
endfacet
facet normal -1.0 0.0 0.0
outer loop
vertex 91.0 37.0 3.0
vertex 91.0 32.0 5.0
vertex 91.0 37.0 6.0
endloop
endfacet
facet normal 0.0 1.0 0.0
outer loop
vertex 92.0 32.0 5.0
vertex 95.0 32.0 1.23373533611471e-15
vertex 92.0 32.0 1.23373533611471e-15
endloop
endfacet
facet normal 0.0 1.0 0.0
outer loop
vertex 95.0 32.0 1.23373533611471e-15
vertex 92.0 32.0 5.0
vertex 95.0 32.0 5.0
endloop
endfacet
facet normal -1.0 0.0 0.0
outer loop
vertex 95.0 37.0 5.0
vertex 95.0 32.0 1.23373533611471e-15
vertex 95.0 32.0 5.0
endloop
endfacet
facet normal -1.0 0.0 0.0
outer loop
vertex 95.0 32.0 1.23373533611471e-15
vertex 95.0 37.0 5.0
vertex 95.0 37.0 1.23373533611471e-15
endloop
endfacet
facet normal -0.0 -1.0 -0.0
outer loop
vertex 95.0 37.0 5.0
vertex 92.0 37.0 1.23373533611471e-15
vertex 95.0 37.0 1.23373533611471e-15
endloop
endfacet
facet normal -0.0 -1.0 -0.0
outer loop
vertex 92.0 37.0 1.23373533611471e-15
vertex 95.0 37.0 5.0
vertex 92.0 37.0 5.0
endloop
endfacet
facet normal 0.0 0.0 -1.0
outer loop
vertex 0.0 39.0 -1.76247905159244e-16
vertex 0.999999999999997 37.0 1.23373533611471e-15
vertex 0.0 0.0 -1.76247905159244e-16
endloop
endfacet
facet normal 0.0 0.0 -1.0
outer loop
vertex 0.999999999999997 37.0 1.23373533611471e-15
vertex 0.0 39.0 -1.76247905159244e-16
vertex 96.0 39.0 -1.76247905159244e-16
endloop
endfacet
facet normal 0.0 0.0 -1.0
outer loop
vertex 0.999999999999997 37.0 1.23373533611471e-15
vertex 96.0 39.0 -1.76247905159244e-16
vertex 4.0 37.0 1.23373533611471e-15
endloop
endfacet
facet normal 0.0 0.0 -1.0
outer loop
vertex 4.0 37.0 1.23373533611471e-15
vertex 96.0 39.0 -1.76247905159244e-16
vertex 4.0 32.0 1.23373533611471e-15
endloop
endfacet
facet normal 0.0 0.0 -1.0
outer loop
vertex 4.0 32.0 1.23373533611471e-15
vertex 96.0 39.0 -1.76247905159244e-16
vertex 5.99294476391799 20.2727406610313 5.63993296509579e-15
endloop
endfacet
facet normal 0.0 0.0 -1.0
outer loop
vertex 4.0 32.0 1.23373533611471e-15
vertex 5.99294476391799 20.2727406610313 5.63993296509579e-15
vertex 5.80000000000001 20.1928203230275 5.63993296509579e-15
endloop
endfacet
facet normal 0.0 0.0 -1.0
outer loop
vertex 4.0 32.0 1.23373533611471e-15
vertex 5.80000000000001 20.1928203230275 5.63993296509579e-15
vertex 5.63431457505077 20.0656854249492 5.63993296509579e-15
endloop
endfacet
facet normal 0.0 0.0 -1.0
outer loop
vertex 4.0 32.0 1.23373533611471e-15
vertex 5.63431457505077 20.0656854249492 5.63993296509579e-15
vertex 5.50717967697246 19.9 5.63993296509579e-15
endloop
endfacet
facet normal 0.0 0.0 -1.0
outer loop
vertex 4.0 32.0 1.23373533611471e-15
vertex 5.50717967697246 19.9 5.63993296509579e-15
vertex 5.42725933896875 19.707055236082 5.63993296509579e-15
endloop
endfacet
facet normal 0.0 0.0 -1.0
outer loop
vertex 4.0 32.0 1.23373533611471e-15
vertex 5.42725933896875 19.707055236082 5.63993296509579e-15
vertex 5.40000000000001 19.5 5.63993296509579e-15
endloop
endfacet
facet normal 0.0 0.0 -1.0
outer loop
vertex 4.0 32.0 1.23373533611471e-15
vertex 5.40000000000001 19.5 5.63993296509579e-15
vertex 4.0 7.0 1.93872695675168e-15
endloop
endfacet
facet normal 0.0 0.0 -1.0
outer loop
vertex 4.0 7.0 1.93872695675168e-15
vertex 5.40000000000001 19.5 5.63993296509579e-15
vertex 4.0 2.0 1.93872695675168e-15
endloop
endfacet
facet normal 0.0 0.0 -1.0
outer loop
vertex 5.99294476391799 20.2727406610313 5.63993296509579e-15
vertex 96.0 39.0 -1.76247905159244e-16
vertex 6.20000000000001 20.3 5.63993296509579e-15
endloop
endfacet
facet normal 0.0 0.0 -1.0
outer loop
vertex 6.20000000000001 20.3 5.63993296509579e-15
vertex 96.0 39.0 -1.76247905159244e-16
vertex 6.40705523608202 20.2727406610313 5.63993296509579e-15
endloop
endfacet
facet normal 0.0 0.0 -1.0
outer loop
vertex 6.40705523608202 20.2727406610313 5.63993296509579e-15
vertex 96.0 39.0 -1.76247905159244e-16
vertex 6.60000000000001 20.1928203230276 5.63993296509579e-15
endloop
endfacet
facet normal 0.0 0.0 -1.0
outer loop
vertex 6.60000000000001 20.1928203230276 5.63993296509579e-15
vertex 96.0 39.0 -1.76247905159244e-16
vertex 6.76568542494925 20.0656854249492 5.63993296509579e-15
endloop
endfacet
facet normal 0.0 0.0 -1.0
outer loop
vertex 6.76568542494925 20.0656854249492 5.63993296509579e-15
vertex 96.0 39.0 -1.76247905159244e-16
vertex 6.89282032302756 19.9 5.63993296509579e-15
endloop
endfacet
facet normal 0.0 0.0 -1.0
outer loop
vertex 6.89282032302756 19.9 5.63993296509579e-15
vertex 96.0 39.0 -1.76247905159244e-16
vertex 6.97274066103127 19.707055236082 5.63993296509579e-15
endloop
endfacet
facet normal 0.0 0.0 -1.0
outer loop
vertex 6.97274066103127 19.707055236082 5.63993296509579e-15
vertex 96.0 39.0 -1.76247905159244e-16
vertex 7.00000000000001 19.5 5.63993296509579e-15
endloop
endfacet
facet normal 0.0 0.0 -1.0
outer loop
vertex 7.00000000000001 19.5 5.63993296509579e-15
vertex 96.0 39.0 -1.76247905159244e-16
vertex 92.0 37.0 1.23373533611471e-15
endloop
endfacet
facet normal 0.0 0.0 -1.0
outer loop
vertex 92.0 37.0 1.23373533611471e-15
vertex 96.0 39.0 -1.76247905159244e-16
vertex 95.0 37.0 1.23373533611471e-15
endloop
endfacet
facet normal 0.0 0.0 -1.0
outer loop
vertex 95.0 37.0 1.23373533611471e-15
vertex 96.0 39.0 -1.76247905159244e-16
vertex 95.0 32.0 1.23373533611471e-15
endloop
endfacet
facet normal 0.0 0.0 -1.0
outer loop
vertex 95.0 32.0 1.23373533611471e-15
vertex 96.0 39.0 -1.76247905159244e-16
vertex 95.0 7.0 1.93872695675168e-15
endloop
endfacet
facet normal 0.0 0.0 -1.0
outer loop
vertex 95.0 7.0 1.93872695675168e-15
vertex 96.0 39.0 -1.76247905159244e-16
vertex 95.0 2.0 1.93872695675168e-15
endloop
endfacet
facet normal 0.0 0.0 -1.0
outer loop
vertex 0.0 0.0 -1.76247905159244e-16
vertex 1.0 2.0 1.93872695675168e-15
vertex 96.0 0.0 -1.76247905159244e-16
endloop
endfacet
facet normal 0.0 0.0 -1.0
outer loop
vertex 1.0 2.0 1.93872695675168e-15
vertex 0.0 0.0 -1.76247905159244e-16
vertex 1.0 7.0 1.93872695675168e-15
endloop
endfacet
facet normal 0.0 0.0 -1.0
outer loop
vertex 1.0 7.0 1.93872695675168e-15
vertex 0.0 0.0 -1.76247905159244e-16
vertex 0.999999999999997 37.0 1.23373533611471e-15
endloop
endfacet
facet normal 0.0 0.0 -1.0
outer loop
vertex 1.0 7.0 1.93872695675168e-15
vertex 0.999999999999997 37.0 1.23373533611471e-15
vertex 0.999999999999999 32.0 1.23373533611471e-15
endloop
endfacet
facet normal 0.0 0.0 -1.0
outer loop
vertex 96.0 0.0 -1.76247905159244e-16
vertex 1.0 2.0 1.93872695675168e-15
vertex 4.0 2.0 1.93872695675168e-15
endloop
endfacet
facet normal 0.0 0.0 -1.0
outer loop
vertex 96.0 0.0 -1.76247905159244e-16
vertex 4.0 2.0 1.93872695675168e-15
vertex 5.99294476391799 18.7272593389687 5.63993296509579e-15
endloop
endfacet
facet normal 0.0 0.0 -1.0
outer loop
vertex 5.99294476391799 18.7272593389687 5.63993296509579e-15
vertex 4.0 2.0 1.93872695675168e-15
vertex 5.80000000000001 18.8071796769724 5.63993296509579e-15
endloop
endfacet
facet normal 0.0 0.0 -1.0
outer loop
vertex 5.80000000000001 18.8071796769724 5.63993296509579e-15
vertex 4.0 2.0 1.93872695675168e-15
vertex 5.63431457505077 18.9343145750508 5.63993296509579e-15
endloop
endfacet
facet normal 0.0 0.0 -1.0
outer loop
vertex 5.63431457505077 18.9343145750508 5.63993296509579e-15
vertex 4.0 2.0 1.93872695675168e-15
vertex 5.50717967697246 19.1 5.63993296509579e-15
endloop
endfacet
facet normal 0.0 0.0 -1.0
outer loop
vertex 5.50717967697246 19.1 5.63993296509579e-15
vertex 4.0 2.0 1.93872695675168e-15
vertex 5.42725933896875 19.292944763918 5.63993296509579e-15
endloop
endfacet
facet normal 0.0 0.0 -1.0
outer loop
vertex 5.42725933896875 19.292944763918 5.63993296509579e-15
vertex 4.0 2.0 1.93872695675168e-15
vertex 5.40000000000001 19.5 5.63993296509579e-15
endloop
endfacet
facet normal 0.0 0.0 -1.0
outer loop
vertex 96.0 0.0 -1.76247905159244e-16
vertex 5.99294476391799 18.7272593389687 5.63993296509579e-15
vertex 6.20000000000001 18.7 5.63993296509579e-15
endloop
endfacet
facet normal 0.0 0.0 -1.0
outer loop
vertex 96.0 0.0 -1.76247905159244e-16
vertex 6.20000000000001 18.7 5.63993296509579e-15
vertex 6.40705523608203 18.7272593389687 5.63993296509579e-15
endloop
endfacet
facet normal 0.0 0.0 -1.0
outer loop
vertex 96.0 0.0 -1.76247905159244e-16
vertex 6.40705523608203 18.7272593389687 5.63993296509579e-15
vertex 6.60000000000001 18.8071796769724 5.63993296509579e-15
endloop
endfacet
facet normal 0.0 0.0 -1.0
outer loop
vertex 96.0 0.0 -1.76247905159244e-16
vertex 6.60000000000001 18.8071796769724 5.63993296509579e-15
vertex 6.76568542494925 18.9343145750508 5.63993296509579e-15
endloop
endfacet
facet normal 0.0 0.0 -1.0
outer loop
vertex 96.0 0.0 -1.76247905159244e-16
vertex 6.76568542494925 18.9343145750508 5.63993296509579e-15
vertex 6.89282032302756 19.1 5.63993296509579e-15
endloop
endfacet
facet normal 0.0 0.0 -1.0
outer loop
vertex 96.0 0.0 -1.76247905159244e-16
vertex 6.89282032302756 19.1 5.63993296509579e-15
vertex 6.97274066103127 19.292944763918 5.63993296509579e-15
endloop
endfacet
facet normal 0.0 0.0 -1.0
outer loop
vertex 96.0 0.0 -1.76247905159244e-16
vertex 6.97274066103127 19.292944763918 5.63993296509579e-15
vertex 7.00000000000001 19.5 5.63993296509579e-15
endloop
endfacet
facet normal 0.0 0.0 -1.0
outer loop
vertex 96.0 0.0 -1.76247905159244e-16
vertex 7.00000000000001 19.5 5.63993296509579e-15
vertex 92.0 2.0 1.93872695675168e-15
endloop
endfacet
facet normal 0.0 0.0 -1.0
outer loop
vertex 92.0 2.0 1.93872695675168e-15
vertex 7.00000000000001 19.5 5.63993296509579e-15
vertex 92.0 37.0 1.23373533611471e-15
endloop
endfacet
facet normal 0.0 0.0 -1.0
outer loop
vertex 92.0 2.0 1.93872695675168e-15
vertex 92.0 37.0 1.23373533611471e-15
vertex 92.0 32.0 1.23373533611471e-15
endloop
endfacet
facet normal 0.0 0.0 -1.0
outer loop
vertex 92.0 2.0 1.93872695675168e-15
vertex 92.0 32.0 1.23373533611471e-15
vertex 92.0 7.0 1.93872695675168e-15
endloop
endfacet
facet normal 0.0 0.0 -1.0
outer loop
vertex 96.0 0.0 -1.76247905159244e-16
vertex 92.0 2.0 1.93872695675168e-15
vertex 95.0 2.0 1.93872695675168e-15
endloop
endfacet
facet normal 0.0 0.0 -1.0
outer loop
vertex 96.0 0.0 -1.76247905159244e-16
vertex 95.0 2.0 1.93872695675168e-15
vertex 96.0 39.0 -1.76247905159244e-16
endloop
endfacet
facet normal 0.0 0.0 -1.0
outer loop
vertex 95.0 32.0 1.23373533611471e-15
vertex 92.0 7.0 1.93872695675168e-15
vertex 92.0 32.0 1.23373533611471e-15
endloop
endfacet
facet normal 0.0 0.0 -1.0
outer loop
vertex 92.0 7.0 1.93872695675168e-15
vertex 95.0 32.0 1.23373533611471e-15
vertex 95.0 7.0 1.93872695675168e-15
endloop
endfacet
facet normal 0.0 0.0 -1.0
outer loop
vertex 4.0 32.0 1.23373533611471e-15
vertex 1.0 7.0 1.93872695675168e-15
vertex 0.999999999999999 32.0 1.23373533611471e-15
endloop
endfacet
facet normal 0.0 0.0 -1.0
outer loop
vertex 1.0 7.0 1.93872695675168e-15
vertex 4.0 32.0 1.23373533611471e-15
vertex 4.0 7.0 1.93872695675168e-15
endloop
endfacet
facet normal -0.0 -0.0 1.0
outer loop
vertex 3.00000000000001 9.00000000000001 19.0
vertex 5.42725933896875 19.292944763918 19.0
vertex 3.00000000000001 30.0 19.0
endloop
endfacet
facet normal -0.0 -0.0 1.0
outer loop
vertex 5.42725933896875 19.292944763918 19.0
vertex 3.00000000000001 9.00000000000001 19.0
vertex 8.00000000000001 13.0 19.0
endloop
endfacet
facet normal -0.0 -0.0 1.0
outer loop
vertex 8.00000000000001 13.0 19.0
vertex 3.00000000000001 9.00000000000001 19.0
vertex 20.0 9.00000000000001 19.0
endloop
endfacet
facet normal -0.0 -0.0 1.0
outer loop
vertex 3.00000000000001 30.0 19.0
vertex 5.42725933896875 19.292944763918 19.0
vertex 5.40000000000001 19.5 19.0
endloop
endfacet
facet normal -0.0 -0.0 1.0
outer loop
vertex 5.42725933896875 19.292944763918 19.0
vertex 8.00000000000001 13.0 19.0
vertex 5.50717967697246 19.1 19.0
endloop
endfacet
facet normal -0.0 -0.0 1.0
outer loop
vertex 5.50717967697246 19.1 19.0
vertex 8.00000000000001 13.0 19.0
vertex 5.63431457505077 18.9343145750508 19.0
endloop
endfacet
facet normal -0.0 -0.0 1.0
outer loop
vertex 5.63431457505077 18.9343145750508 19.0
vertex 8.00000000000001 13.0 19.0
vertex 5.80000000000001 18.8071796769724 19.0
endloop
endfacet
facet normal -0.0 -0.0 1.0
outer loop
vertex 5.80000000000001 18.8071796769724 19.0
vertex 8.00000000000001 13.0 19.0
vertex 5.99294476391799 18.7272593389687 19.0
endloop
endfacet
facet normal -0.0 -0.0 1.0
outer loop
vertex 5.99294476391799 18.7272593389687 19.0
vertex 8.00000000000001 13.0 19.0
vertex 6.20000000000001 18.7 19.0
endloop
endfacet
facet normal -0.0 -0.0 1.0
outer loop
vertex 6.20000000000001 18.7 19.0
vertex 8.00000000000001 13.0 19.0
vertex 6.40705523608203 18.7272593389687 19.0
endloop
endfacet
facet normal -0.0 -0.0 1.0
outer loop
vertex 6.40705523608203 18.7272593389687 19.0
vertex 8.00000000000001 13.0 19.0
vertex 6.60000000000001 18.8071796769724 19.0
endloop
endfacet
facet normal -0.0 -0.0 1.0
outer loop
vertex 6.60000000000001 18.8071796769724 19.0
vertex 8.00000000000001 13.0 19.0
vertex 6.76568542494925 18.9343145750508 19.0
endloop
endfacet
facet normal -0.0 -0.0 1.0
outer loop
vertex 6.76568542494925 18.9343145750508 19.0
vertex 8.00000000000001 13.0 19.0
vertex 6.89282032302756 19.1 19.0
endloop
endfacet
facet normal -0.0 -0.0 1.0
outer loop
vertex 6.89282032302756 19.1 19.0
vertex 8.00000000000001 13.0 19.0
vertex 6.97274066103127 19.292944763918 19.0
endloop
endfacet
facet normal -0.0 -0.0 1.0
outer loop
vertex 6.97274066103127 19.292944763918 19.0
vertex 8.00000000000001 13.0 19.0
vertex 7.00000000000001 19.5 19.0
endloop
endfacet
facet normal -0.0 -0.0 1.0
outer loop
vertex 8.00000000000001 13.0 19.0
vertex 20.0 9.00000000000001 19.0
vertex 20.0 13.0 19.0
endloop
endfacet
facet normal -0.0 -0.0 1.0
outer loop
vertex 3.00000000000001 30.0 19.0
vertex 8.00000000000001 26.0 19.0
vertex 20.0 30.0 19.0
endloop
endfacet
facet normal -0.0 -0.0 1.0
outer loop
vertex 8.00000000000001 26.0 19.0
vertex 3.00000000000001 30.0 19.0
vertex 5.42725933896875 19.707055236082 19.0
endloop
endfacet
facet normal -0.0 -0.0 1.0
outer loop
vertex 5.42725933896875 19.707055236082 19.0
vertex 3.00000000000001 30.0 19.0
vertex 5.40000000000001 19.5 19.0
endloop
endfacet
facet normal -0.0 -0.0 1.0
outer loop
vertex 8.00000000000001 26.0 19.0
vertex 5.42725933896875 19.707055236082 19.0
vertex 5.50717967697246 19.9 19.0
endloop
endfacet
facet normal -0.0 -0.0 1.0
outer loop
vertex 8.00000000000001 26.0 19.0
vertex 5.50717967697246 19.9 19.0
vertex 5.63431457505077 20.0656854249492 19.0
endloop
endfacet
facet normal -0.0 -0.0 1.0
outer loop
vertex 8.00000000000001 26.0 19.0
vertex 5.63431457505077 20.0656854249492 19.0
vertex 5.80000000000001 20.1928203230275 19.0
endloop
endfacet
facet normal -0.0 -0.0 1.0
outer loop
vertex 8.00000000000001 26.0 19.0
vertex 5.80000000000001 20.1928203230275 19.0
vertex 5.99294476391799 20.2727406610313 19.0
endloop
endfacet
facet normal -0.0 -0.0 1.0
outer loop
vertex 8.00000000000001 26.0 19.0
vertex 5.99294476391799 20.2727406610313 19.0
vertex 6.20000000000001 20.3 19.0
endloop
endfacet
facet normal -0.0 -0.0 1.0
outer loop
vertex 8.00000000000001 26.0 19.0
vertex 6.20000000000001 20.3 19.0
vertex 6.40705523608202 20.2727406610313 19.0
endloop
endfacet
facet normal -0.0 -0.0 1.0
outer loop
vertex 8.00000000000001 26.0 19.0
vertex 6.40705523608202 20.2727406610313 19.0
vertex 6.60000000000001 20.1928203230276 19.0
endloop
endfacet
facet normal -0.0 -0.0 1.0
outer loop
vertex 8.00000000000001 26.0 19.0
vertex 6.60000000000001 20.1928203230276 19.0
vertex 6.76568542494925 20.0656854249492 19.0
endloop
endfacet
facet normal -0.0 -0.0 1.0
outer loop
vertex 8.00000000000001 26.0 19.0
vertex 6.76568542494925 20.0656854249492 19.0
vertex 6.89282032302756 19.9 19.0
endloop
endfacet
facet normal -0.0 -0.0 1.0
outer loop
vertex 8.00000000000001 26.0 19.0
vertex 6.89282032302756 19.9 19.0
vertex 6.97274066103127 19.707055236082 19.0
endloop
endfacet
facet normal -0.0 -0.0 1.0
outer loop
vertex 8.00000000000001 26.0 19.0
vertex 6.97274066103127 19.707055236082 19.0
vertex 7.00000000000001 19.5 19.0
endloop
endfacet
facet normal -0.0 -0.0 1.0
outer loop
vertex 8.00000000000001 26.0 19.0
vertex 7.00000000000001 19.5 19.0
vertex 8.00000000000001 13.0 19.0
endloop
endfacet
facet normal -0.0 -0.0 1.0
outer loop
vertex 20.0 30.0 19.0
vertex 8.00000000000001 26.0 19.0
vertex 20.0 26.0 19.0
endloop
endfacet
facet normal -0.991444861373811 0.13052619222005 -0.0
outer loop
vertex 7.00000000000001 19.5 19.0
vertex 6.97274066103127 19.292944763918 5.63993296509579e-15
vertex 6.97274066103127 19.292944763918 19.0
endloop
endfacet
facet normal -0.991444861373811 0.13052619222005 -0.0
outer loop
vertex 6.97274066103127 19.292944763918 5.63993296509579e-15
vertex 7.00000000000001 19.5 19.0
vertex 7.00000000000001 19.5 5.63993296509579e-15
endloop
endfacet
facet normal -0.991444861373811 -0.130526192220048 -0.0
outer loop
vertex 6.97274066103127 19.707055236082 19.0
vertex 7.00000000000001 19.5 5.63993296509579e-15
vertex 7.00000000000001 19.5 19.0
endloop
endfacet
facet normal -0.991444861373811 -0.130526192220048 -0.0
outer loop
vertex 7.00000000000001 19.5 5.63993296509579e-15
vertex 6.97274066103127 19.707055236082 19.0
vertex 6.97274066103127 19.707055236082 5.63993296509579e-15
endloop
endfacet
facet normal -0.923879532511286 -0.382683432365092 -0.0
outer loop
vertex 6.89282032302756 19.9 19.0
vertex 6.97274066103127 19.707055236082 5.63993296509579e-15
vertex 6.97274066103127 19.707055236082 19.0
endloop
endfacet
facet normal -0.923879532511286 -0.382683432365092 -0.0
outer loop
vertex 6.97274066103127 19.707055236082 5.63993296509579e-15
vertex 6.89282032302756 19.9 19.0
vertex 6.89282032302756 19.9 5.63993296509579e-15
endloop
endfacet
facet normal -0.793353340291236 -0.60876142900872 -0.0
outer loop
vertex 6.76568542494925 20.0656854249492 19.0
vertex 6.89282032302756 19.9 5.63993296509579e-15
vertex 6.89282032302756 19.9 19.0
endloop
endfacet
facet normal -0.793353340291236 -0.60876142900872 -0.0
outer loop
vertex 6.89282032302756 19.9 5.63993296509579e-15
vertex 6.76568542494925 20.0656854249492 19.0
vertex 6.76568542494925 20.0656854249492 5.63993296509579e-15
endloop
endfacet
facet normal -0.60876142900872 -0.793353340291236 -0.0
outer loop
vertex 6.76568542494925 20.0656854249492 19.0
vertex 6.60000000000001 20.1928203230276 5.63993296509579e-15
vertex 6.76568542494925 20.0656854249492 5.63993296509579e-15
endloop
endfacet
facet normal -0.60876142900872 -0.793353340291236 -0.0
outer loop
vertex 6.60000000000001 20.1928203230276 5.63993296509579e-15
vertex 6.76568542494925 20.0656854249492 19.0
vertex 6.60000000000001 20.1928203230276 19.0
endloop
endfacet
facet normal -0.382683432365084 -0.923879532511289 -0.0
outer loop
vertex 6.60000000000001 20.1928203230276 19.0
vertex 6.40705523608202 20.2727406610313 5.63993296509579e-15
vertex 6.60000000000001 20.1928203230276 5.63993296509579e-15
endloop
endfacet
facet normal -0.382683432365084 -0.923879532511289 -0.0
outer loop
vertex 6.40705523608202 20.2727406610313 5.63993296509579e-15
vertex 6.60000000000001 20.1928203230276 19.0
vertex 6.40705523608202 20.2727406610313 19.0
endloop
endfacet
facet normal -0.13052619222005 -0.991444861373811 -0.0
outer loop
vertex 6.40705523608202 20.2727406610313 19.0
vertex 6.20000000000001 20.3 5.63993296509579e-15
vertex 6.40705523608202 20.2727406610313 5.63993296509579e-15
endloop
endfacet
facet normal -0.13052619222005 -0.991444861373811 -0.0
outer loop
vertex 6.20000000000001 20.3 5.63993296509579e-15
vertex 6.40705523608202 20.2727406610313 19.0
vertex 6.20000000000001 20.3 19.0
endloop
endfacet
facet normal 0.130526192220049 -0.991444861373811 -0.0
outer loop
vertex 6.20000000000001 20.3 19.0
vertex 5.99294476391799 20.2727406610313 5.63993296509579e-15
vertex 6.20000000000001 20.3 5.63993296509579e-15
endloop
endfacet
facet normal 0.130526192220049 -0.991444861373811 -0.0
outer loop
vertex 5.99294476391799 20.2727406610313 5.63993296509579e-15
vertex 6.20000000000001 20.3 19.0
vertex 5.99294476391799 20.2727406610313 19.0
endloop
endfacet
facet normal 0.382683432365098 -0.923879532511283 -0.0
outer loop
vertex 5.99294476391799 20.2727406610313 19.0
vertex 5.80000000000001 20.1928203230275 5.63993296509579e-15
vertex 5.99294476391799 20.2727406610313 5.63993296509579e-15
endloop
endfacet
facet normal 0.382683432365098 -0.923879532511283 -0.0
outer loop
vertex 5.80000000000001 20.1928203230275 5.63993296509579e-15
vertex 5.99294476391799 20.2727406610313 19.0
vertex 5.80000000000001 20.1928203230275 19.0
endloop
endfacet
facet normal 0.60876142900872 -0.793353340291236 -0.0
outer loop
vertex 5.80000000000001 20.1928203230275 19.0
vertex 5.63431457505077 20.0656854249492 5.63993296509579e-15
vertex 5.80000000000001 20.1928203230275 5.63993296509579e-15
endloop
endfacet
facet normal 0.60876142900872 -0.793353340291236 -0.0
outer loop
vertex 5.63431457505077 20.0656854249492 5.63993296509579e-15
vertex 5.80000000000001 20.1928203230275 19.0
vertex 5.63431457505077 20.0656854249492 19.0
endloop
endfacet
facet normal 0.793353340291236 -0.60876142900872 -0.0
outer loop
vertex 5.63431457505077 20.0656854249492 5.63993296509579e-15
vertex 5.50717967697246 19.9 19.0
vertex 5.50717967697246 19.9 5.63993296509579e-15
endloop
endfacet
facet normal 0.793353340291236 -0.60876142900872 -0.0
outer loop
vertex 5.50717967697246 19.9 19.0
vertex 5.63431457505077 20.0656854249492 5.63993296509579e-15
vertex 5.63431457505077 20.0656854249492 19.0
endloop
endfacet
facet normal 0.923879532511287 -0.38268343236509 -0.0
outer loop
vertex 5.50717967697246 19.9 5.63993296509579e-15
vertex 5.42725933896875 19.707055236082 19.0
vertex 5.42725933896875 19.707055236082 5.63993296509579e-15
endloop
endfacet
facet normal 0.923879532511287 -0.38268343236509 -0.0
outer loop
vertex 5.42725933896875 19.707055236082 19.0
vertex 5.50717967697246 19.9 5.63993296509579e-15
vertex 5.50717967697246 19.9 19.0
endloop
endfacet
facet normal 0.99144486137381 -0.130526192220053 -0.0
outer loop
vertex 5.42725933896875 19.707055236082 5.63993296509579e-15
vertex 5.40000000000001 19.5 19.0
vertex 5.40000000000001 19.5 5.63993296509579e-15
endloop
endfacet
facet normal 0.99144486137381 -0.130526192220053 -0.0
outer loop
vertex 5.40000000000001 19.5 19.0
vertex 5.42725933896875 19.707055236082 5.63993296509579e-15
vertex 5.42725933896875 19.707055236082 19.0
endloop
endfacet
facet normal 0.99144486137381 0.130526192220053 0.0
outer loop
vertex 5.40000000000001 19.5 5.63993296509579e-15
vertex 5.42725933896875 19.292944763918 19.0
vertex 5.42725933896875 19.292944763918 5.63993296509579e-15
endloop
endfacet
facet normal 0.99144486137381 0.130526192220053 0.0
outer loop
vertex 5.42725933896875 19.292944763918 19.0
vertex 5.40000000000001 19.5 5.63993296509579e-15
vertex 5.40000000000001 19.5 19.0
endloop
endfacet
facet normal 0.923879532511289 0.382683432365085 0.0
outer loop
vertex 5.42725933896875 19.292944763918 5.63993296509579e-15
vertex 5.50717967697246 19.1 19.0
vertex 5.50717967697246 19.1 5.63993296509579e-15
endloop
endfacet
facet normal 0.923879532511289 0.382683432365085 0.0
outer loop
vertex 5.50717967697246 19.1 19.0
vertex 5.42725933896875 19.292944763918 5.63993296509579e-15
vertex 5.42725933896875 19.292944763918 19.0
endloop
endfacet
facet normal 0.793353340291231 0.608761429008727 0.0
outer loop
vertex 5.50717967697246 19.1 5.63993296509579e-15
vertex 5.63431457505077 18.9343145750508 19.0
vertex 5.63431457505077 18.9343145750508 5.63993296509579e-15
endloop
endfacet
facet normal 0.793353340291231 0.608761429008727 0.0
outer loop
vertex 5.63431457505077 18.9343145750508 19.0
vertex 5.50717967697246 19.1 5.63993296509579e-15
vertex 5.50717967697246 19.1 19.0
endloop
endfacet
facet normal 0.608761429008729 0.793353340291229 0.0
outer loop
vertex 5.63431457505077 18.9343145750508 19.0
vertex 5.80000000000001 18.8071796769724 5.63993296509579e-15
vertex 5.63431457505077 18.9343145750508 5.63993296509579e-15
endloop
endfacet
facet normal 0.608761429008729 0.793353340291229 0.0
outer loop
vertex 5.80000000000001 18.8071796769724 5.63993296509579e-15
vertex 5.63431457505077 18.9343145750508 19.0
vertex 5.80000000000001 18.8071796769724 19.0
endloop
endfacet
facet normal 0.382683432365086 0.923879532511289 0.0
outer loop
vertex 5.80000000000001 18.8071796769724 19.0
vertex 5.99294476391799 18.7272593389687 5.63993296509579e-15
vertex 5.80000000000001 18.8071796769724 5.63993296509579e-15
endloop
endfacet
facet normal 0.382683432365086 0.923879532511289 0.0
outer loop
vertex 5.99294476391799 18.7272593389687 5.63993296509579e-15
vertex 5.80000000000001 18.8071796769724 19.0
vertex 5.99294476391799 18.7272593389687 19.0
endloop
endfacet
facet normal 0.130526192220049 0.991444861373811 0.0
outer loop
vertex 5.99294476391799 18.7272593389687 19.0
vertex 6.20000000000001 18.7 5.63993296509579e-15
vertex 5.99294476391799 18.7272593389687 5.63993296509579e-15
endloop
endfacet
facet normal 0.130526192220049 0.991444861373811 0.0
outer loop
vertex 6.20000000000001 18.7 5.63993296509579e-15
vertex 5.99294476391799 18.7272593389687 19.0
vertex 6.20000000000001 18.7 19.0
endloop
endfacet
facet normal -0.130526192220049 0.991444861373811 -0.0
outer loop
vertex 6.20000000000001 18.7 19.0
vertex 6.40705523608203 18.7272593389687 5.63993296509579e-15
vertex 6.20000000000001 18.7 5.63993296509579e-15
endloop
endfacet
facet normal -0.130526192220049 0.991444861373811 -0.0
outer loop
vertex 6.40705523608203 18.7272593389687 5.63993296509579e-15
vertex 6.20000000000001 18.7 19.0
vertex 6.40705523608203 18.7272593389687 19.0
endloop
endfacet
facet normal -0.382683432365098 0.923879532511283 -0.0
outer loop
vertex 6.40705523608203 18.7272593389687 19.0
vertex 6.60000000000001 18.8071796769724 5.63993296509579e-15
vertex 6.40705523608203 18.7272593389687 5.63993296509579e-15
endloop
endfacet
facet normal -0.382683432365098 0.923879532511283 -0.0
outer loop
vertex 6.60000000000001 18.8071796769724 5.63993296509579e-15
vertex 6.40705523608203 18.7272593389687 19.0
vertex 6.60000000000001 18.8071796769724 19.0
endloop
endfacet
facet normal -0.60876142900872 0.793353340291236 -0.0
outer loop
vertex 6.60000000000001 18.8071796769724 19.0
vertex 6.76568542494925 18.9343145750508 5.63993296509579e-15
vertex 6.60000000000001 18.8071796769724 5.63993296509579e-15
endloop
endfacet
facet normal -0.60876142900872 0.793353340291236 -0.0
outer loop
vertex 6.76568542494925 18.9343145750508 5.63993296509579e-15
vertex 6.60000000000001 18.8071796769724 19.0
vertex 6.76568542494925 18.9343145750508 19.0
endloop
endfacet
facet normal -0.793353340291236 0.60876142900872 -0.0
outer loop
vertex 6.89282032302756 19.1 19.0
vertex 6.76568542494925 18.9343145750508 5.63993296509579e-15
vertex 6.76568542494925 18.9343145750508 19.0
endloop
endfacet
facet normal -0.793353340291236 0.60876142900872 -0.0
outer loop
vertex 6.76568542494925 18.9343145750508 5.63993296509579e-15
vertex 6.89282032302756 19.1 19.0
vertex 6.89282032302756 19.1 5.63993296509579e-15
endloop
endfacet
facet normal -0.923879532511286 0.382683432365092 -0.0
outer loop
vertex 6.97274066103127 19.292944763918 19.0
vertex 6.89282032302756 19.1 5.63993296509579e-15
vertex 6.89282032302756 19.1 19.0
endloop
endfacet
facet normal -0.923879532511286 0.382683432365092 -0.0
outer loop
vertex 6.89282032302756 19.1 5.63993296509579e-15
vertex 6.97274066103127 19.292944763918 19.0
vertex 6.97274066103127 19.292944763918 5.63993296509579e-15
endloop
endfacet
facet normal 0.0 0.0 1.0
outer loop
vertex 92.0 1.0 6.0
vertex 86.0766292445462 2.0 6.0
vertex 86.0766292445462 1.0 6.0
endloop
endfacet
facet normal 0.0 0.0 1.0
outer loop
vertex 86.0766292445462 2.0 6.0
vertex 92.0 1.0 6.0
vertex 91.0 2.0 6.0
endloop
endfacet
facet normal 0.0 0.0 1.0
outer loop
vertex 91.0 2.0 6.0
vertex 92.0 1.0 6.0
vertex 91.0 7.0 6.0
endloop
endfacet
facet normal 0.0 0.0 1.0
outer loop
vertex 91.0 7.0 6.0
vertex 92.0 1.0 6.0
vertex 92.0 7.0 6.0
endloop
endfacet
facet normal 0.0 -1.0 0.0
outer loop
vertex 92.0 1.0 6.0
vertex 86.0766292445462 1.0 5.0
vertex 92.0 1.0 5.0
endloop
endfacet
facet normal 0.0 -1.0 0.0
outer loop
vertex 86.0766292445462 1.0 5.0
vertex 92.0 1.0 6.0
vertex 86.0766292445462 1.0 6.0
endloop
endfacet
facet normal 1.0 -0.0 -0.0
outer loop
vertex 92.0 7.0 1.93872695675168e-15
vertex 92.0 2.0 5.0
vertex 92.0 2.0 1.93872695675168e-15
endloop
endfacet
facet normal 1.0 -0.0 -0.0
outer loop
vertex 92.0 2.0 5.0
vertex 92.0 1.0 6.0
vertex 92.0 1.0 5.0
endloop
endfacet
facet normal 1.0 -0.0 -0.0
outer loop
vertex 92.0 1.0 6.0
vertex 92.0 2.0 5.0
vertex 92.0 7.0 6.0
endloop
endfacet
facet normal 1.0 -0.0 -0.0
outer loop
vertex 92.0 7.0 6.0
vertex 92.0 2.0 5.0
vertex 92.0 7.0 1.93872695675168e-15
endloop
endfacet
facet normal 1.0 -0.0 -0.0
outer loop
vertex 92.0 7.0 6.0
vertex 92.0 7.0 1.93872695675168e-15
vertex 92.0 7.0 5.0
endloop
endfacet
facet normal 0.0 1.0 0.0
outer loop
vertex 91.0 7.0 6.0
vertex 92.0 7.0 5.0
vertex 91.0 7.0 5.0
endloop
endfacet
facet normal 0.0 1.0 0.0
outer loop
vertex 92.0 7.0 5.0
vertex 91.0 7.0 6.0
vertex 92.0 7.0 6.0
endloop
endfacet
facet normal 0.0 0.0 1.0
outer loop
vertex 92.0 32.0 6.0
vertex 91.0 37.0 6.0
vertex 91.0 32.0 6.0
endloop
endfacet
facet normal 0.0 0.0 1.0
outer loop
vertex 91.0 37.0 6.0
vertex 86.0 38.0 6.0
vertex 86.0 37.0 6.0
endloop
endfacet
facet normal 0.0 0.0 1.0
outer loop
vertex 86.0 38.0 6.0
vertex 91.0 37.0 6.0
vertex 92.0 38.0 6.0
endloop
endfacet
facet normal 0.0 0.0 1.0
outer loop
vertex 92.0 38.0 6.0
vertex 91.0 37.0 6.0
vertex 92.0 32.0 6.0
endloop
endfacet
facet normal 1.0 -0.0 -0.0
outer loop
vertex 92.0 37.0 1.23373533611471e-15
vertex 92.0 32.0 5.0
vertex 92.0 32.0 1.23373533611471e-15
endloop
endfacet
facet normal 1.0 -0.0 -0.0
outer loop
vertex 92.0 32.0 5.0
vertex 92.0 37.0 1.23373533611471e-15
vertex 92.0 32.0 6.0
endloop
endfacet
facet normal 1.0 -0.0 -0.0
outer loop
vertex 92.0 32.0 6.0
vertex 92.0 37.0 1.23373533611471e-15
vertex 92.0 37.0 5.0
endloop
endfacet
facet normal 1.0 -0.0 -0.0
outer loop
vertex 92.0 32.0 6.0
vertex 92.0 37.0 5.0
vertex 92.0 38.0 6.0
endloop
endfacet
facet normal 1.0 -0.0 -0.0
outer loop
vertex 92.0 38.0 6.0
vertex 92.0 37.0 5.0
vertex 92.0 38.0 5.0
endloop
endfacet
facet normal 0.0 1.0 0.0
outer loop
vertex 86.0 38.0 6.0
vertex 92.0 38.0 5.0
vertex 86.0 38.0 5.0
endloop
endfacet
facet normal 0.0 1.0 0.0
outer loop
vertex 92.0 38.0 5.0
vertex 86.0 38.0 6.0
vertex 92.0 38.0 6.0
endloop
endfacet
facet normal -1.0 -0.0 -0.0
outer loop
vertex 86.0 38.0 6.0
vertex 86.0 37.0 5.0
vertex 86.0 37.0 6.0
endloop
endfacet
facet normal -1.0 -0.0 -0.0
outer loop
vertex 86.0 37.0 5.0
vertex 86.0 38.0 6.0
vertex 86.0 38.0 5.0
endloop
endfacet
facet normal 0.0 -1.0 0.0
outer loop
vertex 92.0 32.0 6.0
vertex 91.0 32.0 5.0
vertex 92.0 32.0 5.0
endloop
endfacet
facet normal 0.0 -1.0 0.0
outer loop
vertex 91.0 32.0 5.0
vertex 92.0 32.0 6.0
vertex 91.0 32.0 6.0
endloop
endfacet
facet normal -1.0 -0.0 -0.0
outer loop
vertex 86.0766292445462 2.0 6.0
vertex 86.0766292445462 1.0 5.0
vertex 86.0766292445462 1.0 6.0
endloop
endfacet
facet normal -1.0 -0.0 -0.0
outer loop
vertex 86.0766292445462 1.0 5.0
vertex 86.0766292445462 2.0 6.0
vertex 86.0766292445462 2.0 5.0
endloop
endfacet
facet normal 2.2988857194684e-17 1.0 0.0
outer loop
vertex 45.0 2.0 3.0
vertex 50.0 2.0 5.0
vertex 91.0 2.0 3.0
endloop
endfacet
facet normal 2.2988857194684e-17 1.0 0.0
outer loop
vertex 50.0 2.0 5.0
vertex 45.0 2.0 3.0
vertex 45.0 2.0 6.0
endloop
endfacet
facet normal 2.2988857194684e-17 1.0 0.0
outer loop
vertex 50.0 2.0 5.0
vertex 45.0 2.0 6.0
vertex 50.0 2.0 6.0
endloop
endfacet
facet normal 2.2988857194684e-17 1.0 0.0
outer loop
vertex 91.0 2.0 3.0
vertex 86.0766292445462 2.0 5.0
vertex 91.0 2.0 6.0
endloop
endfacet
facet normal 2.2988857194684e-17 1.0 0.0
outer loop
vertex 86.0766292445462 2.0 5.0
vertex 91.0 2.0 3.0
vertex 50.0 2.0 5.0
endloop
endfacet
facet normal 2.2988857194684e-17 1.0 0.0
outer loop
vertex 91.0 2.0 6.0
vertex 86.0766292445462 2.0 5.0
vertex 86.0766292445462 2.0 6.0
endloop
endfacet
facet normal 0.0 0.0 1.0
outer loop
vertex 44.0 1.00000000000001 6.0
vertex 45.0 2.0 6.0
vertex 44.0 7.0 6.0
endloop
endfacet
facet normal 0.0 0.0 1.0
outer loop
vertex 45.0 2.0 6.0
vertex 44.0 1.00000000000001 6.0
vertex 50.0 1.0 6.0
endloop
endfacet
facet normal 0.0 0.0 1.0
outer loop
vertex 45.0 2.0 6.0
vertex 50.0 1.0 6.0
vertex 50.0 2.0 6.0
endloop
endfacet
facet normal 0.0 0.0 1.0
outer loop
vertex 45.0 7.0 6.0
vertex 44.0 7.0 6.0
vertex 45.0 2.0 6.0
endloop
endfacet
facet normal -1.0 9.39988827515966e-16 0.0
outer loop
vertex 44.0 7.0 6.0
vertex 44.0 1.00000000000001 5.0
vertex 44.0 1.00000000000001 6.0
endloop
endfacet
facet normal -1.0 9.39988827515966e-16 0.0
outer loop
vertex 44.0 1.00000000000001 5.0
vertex 44.0 7.0 6.0
vertex 44.0 7.0 5.0
endloop
endfacet
facet normal -7.93115573216595e-16 -1.0 -0.0
outer loop
vertex 50.0 1.0 6.0
vertex 44.0 1.00000000000001 5.0
vertex 50.0 1.0 5.0
endloop
endfacet
facet normal -7.93115573216595e-16 -1.0 -0.0
outer loop
vertex 44.0 1.00000000000001 5.0
vertex 50.0 1.0 6.0
vertex 44.0 1.00000000000001 6.0
endloop
endfacet
facet normal 1.0 -0.0 0.0
outer loop
vertex 50.0 2.0 5.0
vertex 50.0 1.0 6.0
vertex 50.0 1.0 5.0
endloop
endfacet
facet normal 1.0 -0.0 0.0
outer loop
vertex 50.0 1.0 6.0
vertex 50.0 2.0 5.0
vertex 50.0 2.0 6.0
endloop
endfacet
facet normal 0.0 1.0 0.0
outer loop
vertex 44.0 7.0 6.0
vertex 45.0 7.0 5.0
vertex 44.0 7.0 5.0
endloop
endfacet
facet normal 0.0 1.0 0.0
outer loop
vertex 45.0 7.0 5.0
vertex 44.0 7.0 6.0
vertex 45.0 7.0 6.0
endloop
endfacet
facet normal -0.0 -0.0 1.0
outer loop
vertex 0.999999999999999 32.0 5.0
vertex 3.00000000000001 30.0 5.0
vertex 4.0 32.0 5.0
endloop
endfacet
facet normal -0.0 -0.0 1.0
outer loop
vertex 3.00000000000001 30.0 5.0
vertex 0.999999999999999 32.0 5.0
vertex 1.0 7.0 5.0
endloop
endfacet
facet normal -0.0 -0.0 1.0
outer loop
vertex 3.00000000000001 30.0 5.0
vertex 1.0 7.0 5.0
vertex 3.00000000000001 9.00000000000001 5.0
endloop
endfacet
facet normal -0.0 -0.0 1.0
outer loop
vertex 4.0 32.0 5.0
vertex 3.00000000000001 30.0 5.0
vertex 20.0 30.0 5.0
endloop
endfacet
facet normal -0.0 -0.0 1.0
outer loop
vertex 4.0 32.0 5.0
vertex 20.0 30.0 5.0
vertex 4.0 37.0 5.0
endloop
endfacet
facet normal -0.0 -0.0 1.0
outer loop
vertex 32.0 26.0 5.0
vertex 20.0 30.0 5.0
vertex 20.0 26.0 5.0
endloop
endfacet
facet normal -0.0 -0.0 1.0
outer loop
vertex 95.0 37.0 5.0
vertex 92.0 38.0 5.0
vertex 92.0 37.0 5.0
endloop
endfacet
facet normal -0.0 -0.0 1.0
outer loop
vertex 0.0 0.0 5.0
vertex 1.0 2.0 5.0
vertex 0.0 39.0 5.0
endloop
endfacet
facet normal -0.0 -0.0 1.0
outer loop
vertex 1.0 2.0 5.0
vertex 0.0 0.0 5.0
vertex 44.0 1.00000000000001 5.0
endloop
endfacet
facet normal -0.0 -0.0 1.0
outer loop
vertex 44.0 1.00000000000001 5.0
vertex 0.0 0.0 5.0
vertex 96.0 0.0 5.0
endloop
endfacet
facet normal -0.0 -0.0 1.0
outer loop
vertex 0.0 39.0 5.0
vertex 1.0 2.0 5.0
vertex 1.0 7.0 5.0
endloop
endfacet
facet normal -0.0 -0.0 1.0
outer loop
vertex 0.0 39.0 5.0
vertex 1.0 7.0 5.0
vertex 0.999999999999997 37.0 5.0
endloop
endfacet
facet normal -0.0 -0.0 1.0
outer loop
vertex 0.999999999999997 37.0 5.0
vertex 1.0 7.0 5.0
vertex 0.999999999999999 32.0 5.0
endloop
endfacet
facet normal -0.0 -0.0 1.0
outer loop
vertex 1.0 2.0 5.0
vertex 44.0 1.00000000000001 5.0
vertex 4.0 2.0 5.0
endloop
endfacet
facet normal -0.0 -0.0 1.0
outer loop
vertex 4.0 2.0 5.0
vertex 44.0 1.00000000000001 5.0
vertex 4.0 7.0 5.0
endloop
endfacet
facet normal -0.0 -0.0 1.0
outer loop
vertex 4.0 7.0 5.0
vertex 44.0 1.00000000000001 5.0
vertex 20.0 9.00000000000001 5.0
endloop
endfacet
facet normal -0.0 -0.0 1.0
outer loop
vertex 20.0 9.00000000000001 5.0
vertex 44.0 1.00000000000001 5.0
vertex 20.0 13.0 5.0
endloop
endfacet
facet normal -0.0 -0.0 1.0
outer loop
vertex 20.0 13.0 5.0
vertex 44.0 1.00000000000001 5.0
vertex 32.0 13.0 5.0
endloop
endfacet
facet normal -0.0 -0.0 1.0
outer loop
vertex 32.0 13.0 5.0
vertex 44.0 1.00000000000001 5.0
vertex 32.0 26.0 5.0
endloop
endfacet
facet normal -0.0 -0.0 1.0
outer loop
vertex 44.0 1.00000000000001 5.0
vertex 96.0 0.0 5.0
vertex 50.0 1.0 5.0
endloop
endfacet
facet normal -0.0 -0.0 1.0
outer loop
vertex 50.0 1.0 5.0
vertex 96.0 0.0 5.0
vertex 50.0 2.0 5.0
endloop
endfacet
facet normal -0.0 -0.0 1.0
outer loop
vertex 50.0 2.0 5.0
vertex 96.0 0.0 5.0
vertex 86.0766292445462 1.0 5.0
endloop
endfacet
facet normal -0.0 -0.0 1.0
outer loop
vertex 86.0766292445462 1.0 5.0
vertex 96.0 0.0 5.0
vertex 92.0 1.0 5.0
endloop
endfacet
facet normal -0.0 -0.0 1.0
outer loop
vertex 92.0 1.0 5.0
vertex 96.0 0.0 5.0
vertex 92.0 2.0 5.0
endloop
endfacet
facet normal -0.0 -0.0 1.0
outer loop
vertex 92.0 2.0 5.0
vertex 96.0 0.0 5.0
vertex 95.0 2.0 5.0
endloop
endfacet
facet normal -0.0 -0.0 1.0
outer loop
vertex 95.0 2.0 5.0
vertex 96.0 0.0 5.0
vertex 95.0 7.0 5.0
endloop
endfacet
facet normal -0.0 -0.0 1.0
outer loop
vertex 95.0 7.0 5.0
vertex 96.0 0.0 5.0
vertex 95.0 32.0 5.0
endloop
endfacet
facet normal -0.0 -0.0 1.0
outer loop
vertex 95.0 32.0 5.0
vertex 96.0 0.0 5.0
vertex 95.0 37.0 5.0
endloop
endfacet
facet normal -0.0 -0.0 1.0
outer loop
vertex 0.0 39.0 5.0
vertex 44.0 38.0 5.0
vertex 96.0 39.0 5.0
endloop
endfacet
facet normal -0.0 -0.0 1.0
outer loop
vertex 44.0 38.0 5.0
vertex 0.0 39.0 5.0
vertex 0.999999999999997 37.0 5.0
endloop
endfacet
facet normal -0.0 -0.0 1.0
outer loop
vertex 44.0 38.0 5.0
vertex 0.999999999999997 37.0 5.0
vertex 4.0 37.0 5.0
endloop
endfacet
facet normal -0.0 -0.0 1.0
outer loop
vertex 44.0 38.0 5.0
vertex 4.0 37.0 5.0
vertex 20.0 30.0 5.0
endloop
endfacet
facet normal -0.0 -0.0 1.0
outer loop
vertex 44.0 38.0 5.0
vertex 20.0 30.0 5.0
vertex 32.0 26.0 5.0
endloop
endfacet
facet normal -0.0 -0.0 1.0
outer loop
vertex 44.0 38.0 5.0
vertex 32.0 26.0 5.0
vertex 44.0 32.0 5.0
endloop
endfacet
facet normal -0.0 -0.0 1.0
outer loop
vertex 44.0 32.0 5.0
vertex 32.0 26.0 5.0
vertex 44.0 1.00000000000001 5.0
endloop
endfacet
facet normal -0.0 -0.0 1.0
outer loop
vertex 44.0 32.0 5.0
vertex 44.0 1.00000000000001 5.0
vertex 44.0 7.0 5.0
endloop
endfacet
facet normal -0.0 -0.0 1.0
outer loop
vertex 96.0 39.0 5.0
vertex 44.0 38.0 5.0
vertex 50.0 38.0 5.0
endloop
endfacet
facet normal -0.0 -0.0 1.0
outer loop
vertex 96.0 39.0 5.0
vertex 50.0 38.0 5.0
vertex 86.0 38.0 5.0
endloop
endfacet
facet normal -0.0 -0.0 1.0
outer loop
vertex 86.0 38.0 5.0
vertex 50.0 38.0 5.0
vertex 86.0 37.0 5.0
endloop
endfacet
facet normal -0.0 -0.0 1.0
outer loop
vertex 96.0 39.0 5.0
vertex 86.0 38.0 5.0
vertex 92.0 38.0 5.0
endloop
endfacet
facet normal -0.0 -0.0 1.0
outer loop
vertex 96.0 39.0 5.0
vertex 92.0 38.0 5.0
vertex 95.0 37.0 5.0
endloop
endfacet
facet normal -0.0 -0.0 1.0
outer loop
vertex 96.0 39.0 5.0
vertex 95.0 37.0 5.0
vertex 96.0 0.0 5.0
endloop
endfacet
facet normal -0.0 -0.0 1.0
outer loop
vertex 92.0 7.0 5.0
vertex 91.0 32.0 5.0
vertex 91.0 7.0 5.0
endloop
endfacet
facet normal -0.0 -0.0 1.0
outer loop
vertex 91.0 32.0 5.0
vertex 92.0 7.0 5.0
vertex 92.0 32.0 5.0
endloop
endfacet
facet normal -0.0 -0.0 1.0
outer loop
vertex 92.0 32.0 5.0
vertex 92.0 7.0 5.0
vertex 95.0 7.0 5.0
endloop
endfacet
facet normal -0.0 -0.0 1.0
outer loop
vertex 92.0 32.0 5.0
vertex 95.0 7.0 5.0
vertex 95.0 32.0 5.0
endloop
endfacet
facet normal -0.0 -0.0 1.0
outer loop
vertex 86.0766292445462 2.0 5.0
vertex 50.0 2.0 5.0
vertex 86.0766292445462 1.0 5.0
endloop
endfacet
facet normal -0.0 -0.0 1.0
outer loop
vertex 45.0 7.0 5.0
vertex 44.0 32.0 5.0
vertex 44.0 7.0 5.0
endloop
endfacet
facet normal -0.0 -0.0 1.0
outer loop
vertex 44.0 32.0 5.0
vertex 45.0 7.0 5.0
vertex 45.0 32.0 5.0
endloop
endfacet
facet normal -0.0 -0.0 1.0
outer loop
vertex 86.0 37.0 5.0
vertex 50.0 38.0 5.0
vertex 50.0 37.0 5.0
endloop
endfacet
facet normal -0.0 -0.0 1.0
outer loop
vertex 4.0 7.0 5.0
vertex 3.00000000000001 9.00000000000001 5.0
vertex 1.0 7.0 5.0
endloop
endfacet
facet normal -0.0 -0.0 1.0
outer loop
vertex 3.00000000000001 9.00000000000001 5.0
vertex 4.0 7.0 5.0
vertex 20.0 9.00000000000001 5.0
endloop
endfacet
facet normal 0.0 0.0 1.0
outer loop
vertex 45.0 32.0 6.0
vertex 44.0 38.0 6.0
vertex 44.0 32.0 6.0
endloop
endfacet
facet normal 0.0 0.0 1.0
outer loop
vertex 44.0 38.0 6.0
vertex 45.0 32.0 6.0
vertex 45.0 37.0 6.0
endloop
endfacet
facet normal 0.0 0.0 1.0
outer loop
vertex 44.0 38.0 6.0
vertex 45.0 37.0 6.0
vertex 50.0 38.0 6.0
endloop
endfacet
facet normal 0.0 0.0 1.0
outer loop
vertex 50.0 38.0 6.0
vertex 45.0 37.0 6.0
vertex 50.0 37.0 6.0
endloop
endfacet
facet normal 1.0 -0.0 0.0
outer loop
vertex 50.0 38.0 5.0
vertex 50.0 37.0 6.0
vertex 50.0 37.0 5.0
endloop
endfacet
facet normal 1.0 -0.0 0.0
outer loop
vertex 50.0 37.0 6.0
vertex 50.0 38.0 5.0
vertex 50.0 38.0 6.0
endloop
endfacet
facet normal 0.0 1.0 0.0
outer loop
vertex 44.0 38.0 6.0
vertex 50.0 38.0 5.0
vertex 44.0 38.0 5.0
endloop
endfacet
facet normal 0.0 1.0 0.0
outer loop
vertex 50.0 38.0 5.0
vertex 44.0 38.0 6.0
vertex 50.0 38.0 6.0
endloop
endfacet
facet normal -1.0 9.39988827515966e-16 0.0
outer loop
vertex 44.0 38.0 6.0
vertex 44.0 32.0 5.0
vertex 44.0 32.0 6.0
endloop
endfacet
facet normal -1.0 9.39988827515966e-16 0.0
outer loop
vertex 44.0 32.0 5.0
vertex 44.0 38.0 6.0
vertex 44.0 38.0 5.0
endloop
endfacet
facet normal 0.0 -1.0 0.0
outer loop
vertex 45.0 32.0 6.0
vertex 44.0 32.0 5.0
vertex 45.0 32.0 5.0
endloop
endfacet
facet normal 0.0 -1.0 0.0
outer loop
vertex 44.0 32.0 5.0
vertex 45.0 32.0 6.0
vertex 44.0 32.0 6.0
endloop
endfacet
endsolid main_support
